<?xml version="1.0" encoding="utf-8"?>
<!-- Generator: Adobe Illustrator 15.1.0, SVG Export Plug-In . SVG Version: 6.00 Build 0)  -->
<!DOCTYPE svg PUBLIC "-//W3C//DTD SVG 1.1//EN" "http://www.w3.org/Graphics/SVG/1.1/DTD/svg11.dtd">
<svg version="1.1" id="Ebene_1" xmlns="http://www.w3.org/2000/svg" xmlns:xlink="http://www.w3.org/1999/xlink" x="0px" y="0px"
	 width="77.953px" height="77.953px" viewBox="0 0 77.953 77.953" enable-background="new 0 0 77.953 77.953" xml:space="preserve">
<g>
	<path fill="none" stroke="#323333" stroke-width="1.4" stroke-linecap="round" stroke-linejoin="round" d="M23.45,57.709
		l-2.942-0.003c-2.591-0.003-4.688-2.084-4.686-4.655l0.007-6.035"/>
	
		<line fill="none" stroke="#323333" stroke-width="1.4" stroke-linecap="round" stroke-linejoin="round" x1="47.506" y1="57.736" x2="36.29" y2="57.723"/>
	<path fill="none" stroke="#323333" stroke-width="1.4" stroke-linecap="round" stroke-linejoin="round" d="M46.391,26.635
		l10.191,0.012c1.139,0.002,2.277,0.85,2.783,1.42c0.064,0.07,7.357,11.165,7.394,11.207c1.061,1.342,1.093,2.613,1.093,2.613
		l-0.014,11.22c-0.002,2.569-1.892,4.647-4.482,4.646l-3.102-0.004"/>
	<polyline fill="none" stroke="#323333" stroke-width="1.4" stroke-linecap="round" stroke-linejoin="round" points="61.62,31.922 
		52.376,31.922 52.376,43.965 67.847,43.965 	"/>
	
		<circle fill="none" stroke="#323333" stroke-width="1.4" stroke-linecap="round" stroke-linejoin="round" cx="29.75" cy="57.177" r="6.233"/>
	<path fill="none" stroke="#323333" stroke-width="1.4" stroke-linecap="round" stroke-linejoin="round" d="M60.286,57.209
		c-0.004,3.442-2.799,6.23-6.24,6.227c-3.443-0.004-6.232-2.799-6.229-6.24c0.004-3.443,2.797-6.23,6.243-6.227
		C57.5,50.973,60.288,53.766,60.286,57.209z"/>
	<path fill="none" stroke="#323333" stroke-width="1.4" d="M45.988,43.144c-0.001,1.894-1.566,3.398-3.462,3.396H13.53
		c-1.896-0.001-3.432-1.541-3.429-3.435V17.913c0.002-1.895,1.566-3.398,3.463-3.396h28.995c1.896,0.002,3.432,1.541,3.429,3.436
		V43.144z"/>
	<g>
		<path fill="#323333" d="M25.557,39.536c-0.438,0-0.854-0.173-1.169-0.487l-7.914-7.928c-0.643-0.654-0.641-1.707,0.002-2.349
			l1.097-1.094c0.636-0.626,1.728-0.622,2.348,0.004l5.651,5.659l11.127-11.107c0.629-0.626,1.721-0.625,2.349,0.002l1.093,1.096
			c0.312,0.312,0.484,0.728,0.483,1.17c-0.001,0.445-0.179,0.865-0.5,1.182L26.725,39.05C26.421,39.357,25.995,39.536,25.557,39.536
			z"/>
	</g>
</g>
</svg>
